<?xml version="1.0" encoding="utf-8" standalone="no"?>
<!DOCTYPE svg PUBLIC "-//W3C//DTD SVG 1.1//EN"
  "http://www.w3.org/Graphics/SVG/1.1/DTD/svg11.dtd">
<svg xmlns:xlink="http://www.w3.org/1999/xlink" width="252pt" height="126pt" viewBox="0 0 252 126" xmlns="http://www.w3.org/2000/svg" version="1.1">
 <metadata>
  <rdf:RDF xmlns:dc="http://purl.org/dc/elements/1.1/" xmlns:cc="http://creativecommons.org/ns#" xmlns:rdf="http://www.w3.org/1999/02/22-rdf-syntax-ns#">
   <cc:Work>
    <dc:type rdf:resource="http://purl.org/dc/dcmitype/StillImage"/>
    <dc:date>2024-02-02T11:50:53.731909</dc:date>
    <dc:format>image/svg+xml</dc:format>
    <dc:creator>
     <cc:Agent>
      <dc:title>Matplotlib v3.7.2, https://matplotlib.org/</dc:title>
     </cc:Agent>
    </dc:creator>
   </cc:Work>
  </rdf:RDF>
 </metadata>
 <defs>
  <style type="text/css">*{stroke-linejoin: round; stroke-linecap: butt}</style>
 </defs>
 <g id="figure_1">
  <g id="patch_1">
   <path d="M 0 126 
L 252 126 
L 252 0 
L 0 0 
z
" style="fill: #ffffff"/>
  </g>
  <g id="axes_1">
   <g id="patch_2">
    <path d="M 20.16 107.1 
L 113.453617 107.1 
L 113.453617 13.68 
L 20.16 13.68 
z
" style="fill: #ffffff"/>
   </g>
   <g id="matplotlib.axis_1">
    <g id="xtick_1">
     <g id="line2d_1">
      <defs>
       <path id="ma48bab7325" d="M 0 0 
L 0 2 
" style="stroke: #000000; stroke-width: 0.8"/>
      </defs>
      <g>
       <use xlink:href="#ma48bab7325" x="20.16" y="107.1" style="stroke: #000000; stroke-width: 0.8"/>
      </g>
     </g>
     <g id="text_1">
      <!-- 0 -->
      <g transform="translate(18.16 114.665) scale(0.08 -0.08)">
       <defs>
        <path id="TimesNewRomanPSMT-30" d="M 231 2094 
Q 231 2819 450 3342 
Q 669 3866 1031 4122 
Q 1313 4325 1613 4325 
Q 2100 4325 2488 3828 
Q 2972 3213 2972 2159 
Q 2972 1422 2759 906 
Q 2547 391 2217 158 
Q 1888 -75 1581 -75 
Q 975 -75 572 641 
Q 231 1244 231 2094 
z
M 844 2016 
Q 844 1141 1059 588 
Q 1238 122 1591 122 
Q 1759 122 1940 273 
Q 2122 425 2216 781 
Q 2359 1319 2359 2297 
Q 2359 3022 2209 3506 
Q 2097 3866 1919 4016 
Q 1791 4119 1609 4119 
Q 1397 4119 1231 3928 
Q 1006 3669 925 3112 
Q 844 2556 844 2016 
z
" transform="scale(0.015625)"/>
       </defs>
       <use xlink:href="#TimesNewRomanPSMT-30"/>
      </g>
     </g>
    </g>
    <g id="xtick_2">
     <g id="line2d_2">
      <g>
       <use xlink:href="#ma48bab7325" x="66.806809" y="107.1" style="stroke: #000000; stroke-width: 0.8"/>
      </g>
     </g>
     <g id="text_2">
      <!-- 50 -->
      <g transform="translate(62.806809 114.665) scale(0.08 -0.08)">
       <defs>
        <path id="TimesNewRomanPSMT-35" d="M 2778 4238 
L 2534 3706 
L 1259 3706 
L 981 3138 
Q 1809 3016 2294 2522 
Q 2709 2097 2709 1522 
Q 2709 1188 2573 903 
Q 2438 619 2231 419 
Q 2025 219 1772 97 
Q 1413 -75 1034 -75 
Q 653 -75 479 54 
Q 306 184 306 341 
Q 306 428 378 495 
Q 450 563 559 563 
Q 641 563 702 538 
Q 763 513 909 409 
Q 1144 247 1384 247 
Q 1750 247 2026 523 
Q 2303 800 2303 1197 
Q 2303 1581 2056 1914 
Q 1809 2247 1375 2428 
Q 1034 2569 447 2591 
L 1259 4238 
L 2778 4238 
z
" transform="scale(0.015625)"/>
       </defs>
       <use xlink:href="#TimesNewRomanPSMT-35"/>
       <use xlink:href="#TimesNewRomanPSMT-30" x="50"/>
      </g>
     </g>
    </g>
    <g id="xtick_3">
     <g id="line2d_3">
      <g>
       <use xlink:href="#ma48bab7325" x="113.453617" y="107.1" style="stroke: #000000; stroke-width: 0.8"/>
      </g>
     </g>
     <g id="text_3">
      <!-- 100 -->
      <g transform="translate(107.453617 114.665) scale(0.08 -0.08)">
       <defs>
        <path id="TimesNewRomanPSMT-31" d="M 750 3822 
L 1781 4325 
L 1884 4325 
L 1884 747 
Q 1884 391 1914 303 
Q 1944 216 2037 169 
Q 2131 122 2419 116 
L 2419 0 
L 825 0 
L 825 116 
Q 1125 122 1212 167 
Q 1300 213 1334 289 
Q 1369 366 1369 747 
L 1369 3034 
Q 1369 3497 1338 3628 
Q 1316 3728 1258 3775 
Q 1200 3822 1119 3822 
Q 1003 3822 797 3725 
L 750 3822 
z
" transform="scale(0.015625)"/>
       </defs>
       <use xlink:href="#TimesNewRomanPSMT-31"/>
       <use xlink:href="#TimesNewRomanPSMT-30" x="50"/>
       <use xlink:href="#TimesNewRomanPSMT-30" x="100"/>
      </g>
     </g>
    </g>
    <g id="text_4">
     <!-- x -->
     <g transform="translate(64.806809 121.94125) scale(0.08 -0.08)">
      <defs>
       <path id="TimesNewRomanPSMT-78" d="M 84 2863 
L 1431 2863 
L 1431 2747 
Q 1303 2747 1251 2703 
Q 1200 2659 1200 2588 
Q 1200 2513 1309 2356 
Q 1344 2306 1413 2200 
L 1616 1875 
L 1850 2200 
Q 2075 2509 2075 2591 
Q 2075 2656 2022 2701 
Q 1969 2747 1850 2747 
L 1850 2863 
L 2819 2863 
L 2819 2747 
Q 2666 2738 2553 2663 
Q 2400 2556 2134 2200 
L 1744 1678 
L 2456 653 
Q 2719 275 2831 198 
Q 2944 122 3122 113 
L 3122 0 
L 1772 0 
L 1772 113 
Q 1913 113 1991 175 
Q 2050 219 2050 291 
Q 2050 363 1850 653 
L 1431 1266 
L 972 653 
Q 759 369 759 316 
Q 759 241 829 180 
Q 900 119 1041 113 
L 1041 0 
L 106 0 
L 106 113 
Q 219 128 303 191 
Q 422 281 703 653 
L 1303 1450 
L 759 2238 
Q 528 2575 401 2661 
Q 275 2747 84 2747 
L 84 2863 
z
" transform="scale(0.015625)"/>
      </defs>
      <use xlink:href="#TimesNewRomanPSMT-78"/>
     </g>
    </g>
   </g>
   <g id="matplotlib.axis_2">
    <g id="ytick_1">
     <g id="line2d_4">
      <defs>
       <path id="md448a89559" d="M 0 0 
L -2 0 
" style="stroke: #000000; stroke-width: 0.8"/>
      </defs>
      <g>
       <use xlink:href="#md448a89559" x="20.16" y="107.1" style="stroke: #000000; stroke-width: 0.8"/>
      </g>
     </g>
     <g id="text_5">
      <!-- −2 -->
      <g transform="translate(9.63875 109.8775) scale(0.08 -0.08)">
       <defs>
        <path id="TimesNewRomanPSMT-2212" d="M 3484 2000 
L 116 2000 
L 116 2256 
L 3484 2256 
L 3484 2000 
z
" transform="scale(0.015625)"/>
        <path id="TimesNewRomanPSMT-32" d="M 2934 816 
L 2638 0 
L 138 0 
L 138 116 
Q 1241 1122 1691 1759 
Q 2141 2397 2141 2925 
Q 2141 3328 1894 3587 
Q 1647 3847 1303 3847 
Q 991 3847 742 3664 
Q 494 3481 375 3128 
L 259 3128 
Q 338 3706 661 4015 
Q 984 4325 1469 4325 
Q 1984 4325 2329 3994 
Q 2675 3663 2675 3213 
Q 2675 2891 2525 2569 
Q 2294 2063 1775 1497 
Q 997 647 803 472 
L 1909 472 
Q 2247 472 2383 497 
Q 2519 522 2628 598 
Q 2738 675 2819 816 
L 2934 816 
z
" transform="scale(0.015625)"/>
       </defs>
       <use xlink:href="#TimesNewRomanPSMT-2212"/>
       <use xlink:href="#TimesNewRomanPSMT-32" x="56.396484"/>
      </g>
     </g>
    </g>
    <g id="ytick_2">
     <g id="line2d_5">
      <g>
       <use xlink:href="#md448a89559" x="20.16" y="83.745" style="stroke: #000000; stroke-width: 0.8"/>
      </g>
     </g>
     <g id="text_6">
      <!-- −1 -->
      <g transform="translate(9.63875 86.5225) scale(0.08 -0.08)">
       <use xlink:href="#TimesNewRomanPSMT-2212"/>
       <use xlink:href="#TimesNewRomanPSMT-31" x="56.396484"/>
      </g>
     </g>
    </g>
    <g id="ytick_3">
     <g id="line2d_6">
      <g>
       <use xlink:href="#md448a89559" x="20.16" y="60.39" style="stroke: #000000; stroke-width: 0.8"/>
      </g>
     </g>
     <g id="text_7">
      <!-- 0 -->
      <g transform="translate(14.15 63.1675) scale(0.08 -0.08)">
       <use xlink:href="#TimesNewRomanPSMT-30"/>
      </g>
     </g>
    </g>
    <g id="ytick_4">
     <g id="line2d_7">
      <g>
       <use xlink:href="#md448a89559" x="20.16" y="37.035" style="stroke: #000000; stroke-width: 0.8"/>
      </g>
     </g>
     <g id="text_8">
      <!-- 1 -->
      <g transform="translate(14.15 39.8125) scale(0.08 -0.08)">
       <use xlink:href="#TimesNewRomanPSMT-31"/>
      </g>
     </g>
    </g>
    <g id="ytick_5">
     <g id="line2d_8">
      <g>
       <use xlink:href="#md448a89559" x="20.16" y="13.68" style="stroke: #000000; stroke-width: 0.8"/>
      </g>
     </g>
     <g id="text_9">
      <!-- 2 -->
      <g transform="translate(14.15 16.4575) scale(0.08 -0.08)">
       <use xlink:href="#TimesNewRomanPSMT-32"/>
      </g>
     </g>
    </g>
    <g id="text_10">
     <!-- y -->
     <g transform="translate(7.9025 62.39) rotate(-90) scale(0.08 -0.08)">
      <defs>
       <path id="TimesNewRomanPSMT-79" d="M 38 2863 
L 1372 2863 
L 1372 2747 
L 1306 2747 
Q 1166 2747 1095 2686 
Q 1025 2625 1025 2534 
Q 1025 2413 1128 2197 
L 1825 753 
L 2466 2334 
Q 2519 2463 2519 2588 
Q 2519 2644 2497 2672 
Q 2472 2706 2419 2726 
Q 2366 2747 2231 2747 
L 2231 2863 
L 3163 2863 
L 3163 2747 
Q 3047 2734 2984 2696 
Q 2922 2659 2847 2556 
Q 2819 2513 2741 2316 
L 1575 -541 
Q 1406 -956 1132 -1168 
Q 859 -1381 606 -1381 
Q 422 -1381 303 -1275 
Q 184 -1169 184 -1031 
Q 184 -900 270 -820 
Q 356 -741 506 -741 
Q 609 -741 788 -809 
Q 913 -856 944 -856 
Q 1038 -856 1148 -759 
Q 1259 -663 1372 -384 
L 1575 113 
L 547 2272 
Q 500 2369 397 2513 
Q 319 2622 269 2659 
Q 197 2709 38 2747 
L 38 2863 
z
" transform="scale(0.015625)"/>
      </defs>
      <use xlink:href="#TimesNewRomanPSMT-79"/>
     </g>
    </g>
   </g>
   <g id="line2d_9">
    <path d="M 20.16 60.39 
L 21.000483 42.082328 
L 21.374031 37.877988 
L 21.560805 37.09105 
L 21.654192 37.046081 
L 21.840966 37.655386 
L 22.121127 40.254575 
L 22.494675 46.45955 
L 23.241771 64.150313 
L 23.89548 78.126105 
L 24.269028 82.646065 
L 24.549189 83.74431 
L 24.642576 83.645337 
L 24.82935 82.752238 
L 25.109511 79.758643 
L 25.576446 71.12053 
L 27.070638 39.32538 
L 27.350799 37.284407 
L 27.537573 37.06895 
L 27.724347 37.785086 
L 28.004508 40.533524 
L 28.378056 46.896653 
L 29.218539 66.954903 
L 29.872248 79.859232 
L 30.245796 83.347492 
L 30.43257 83.742217 
L 30.525957 83.589293 
L 30.712731 82.59051 
L 30.992892 79.451756 
L 31.459827 70.638084 
L 32.860633 40.163446 
L 33.140794 37.614616 
L 33.327568 37.041206 
L 33.420955 37.104287 
L 33.607729 37.92687 
L 33.88789 40.823087 
L 34.261438 47.340968 
L 35.195308 69.65994 
L 35.75563 80.152258 
L 36.129178 83.440551 
L 36.315952 83.727641 
L 36.502726 83.082476 
L 36.782887 80.433086 
L 37.156435 74.174708 
L 37.903531 56.451105 
L 38.55724 42.536631 
L 38.930788 38.079719 
L 39.210949 37.035 
L 39.304336 37.15207 
L 39.49111 38.080661 
L 39.771271 41.12311 
L 40.238206 49.820607 
L 41.732398 81.532181 
L 42.012559 83.521288 
L 42.199333 83.70059 
L 42.386107 82.948717 
L 42.666268 80.150561 
L 43.039816 73.735161 
L 43.880299 53.651538 
L 44.534008 40.821349 
L 44.907556 37.399936 
L 45.09433 37.041279 
L 45.187717 37.212276 
L 45.374491 38.246378 
L 45.654652 41.433433 
L 46.121587 50.304919 
L 47.522392 80.706467 
L 47.802553 83.204787 
L 47.989327 83.742266 
L 48.082714 83.661077 
L 48.269488 82.802898 
L 48.549649 79.857473 
L 49.016584 71.278205 
L 50.510776 39.40281 
L 50.790937 37.311003 
L 50.977711 37.060039 
L 51.164485 37.741025 
L 51.444646 40.440458 
L 51.818194 46.751862 
L 52.56529 64.507239 
L 53.218999 78.35956 
L 53.592547 82.753157 
L 53.779321 83.645631 
L 53.872708 83.744286 
L 53.966095 83.609125 
L 54.152869 82.645099 
L 54.43303 79.553979 
L 54.899965 70.79762 
L 56.300771 40.252962 
L 56.580932 37.654658 
L 56.767706 37.045983 
L 56.861093 37.091271 
L 57.047867 37.878836 
L 57.328028 40.726542 
L 57.701576 47.193828 
L 58.542059 67.301616 
L 59.195768 80.056894 
L 59.569316 83.411255 
L 59.75609 83.733821 
L 59.942864 83.123884 
L 60.223025 80.523811 
L 60.596573 74.317894 
L 61.343669 56.626544 
L 61.997378 42.651823 
L 62.370926 38.13297 
L 62.651087 37.035665 
L 62.744474 37.134957 
L 62.931248 38.02868 
L 63.211409 41.023137 
L 63.678344 49.662298 
L 65.172536 81.455995 
L 65.452697 83.496057 
L 65.639471 83.710878 
L 65.826245 82.994113 
L 66.106406 80.244799 
L 66.479954 73.880748 
L 67.320437 53.822042 
L 67.974146 40.919009 
L 68.347694 37.431924 
L 68.534468 37.037832 
L 68.627855 37.191074 
L 68.814629 38.190479 
L 69.09479 41.330084 
L 69.561725 50.144778 
L 70.96253 80.618146 
L 71.242691 83.166089 
L 71.429465 83.738868 
L 71.522852 83.675468 
L 71.709626 82.852259 
L 71.989787 79.955174 
L 72.363335 73.436391 
L 73.297205 51.117137 
L 73.857527 40.626045 
L 74.231075 37.338937 
L 74.417849 37.052482 
L 74.604623 37.698277 
L 74.884784 40.348549 
L 75.258332 46.607863 
L 76.005428 64.332033 
L 76.659137 78.245422 
L 77.032685 82.701223 
L 77.312846 83.745 
L 77.406233 83.627611 
L 77.593007 82.698397 
L 77.873168 79.65509 
L 78.340104 70.956553 
L 79.834296 39.246466 
L 80.114457 37.258273 
L 80.301231 37.079607 
L 80.488005 37.832108 
L 80.768166 40.631136 
L 81.141714 47.047453 
L 81.982197 67.131511 
L 82.635906 79.960389 
L 83.009454 83.380625 
L 83.196228 83.738647 
L 83.383002 83.163974 
L 83.663163 80.613369 
L 84.036711 74.460271 
L 84.783807 56.802201 
L 85.437516 42.768045 
L 85.811064 38.187513 
L 86.091225 37.037685 
L 86.184612 37.119192 
L 86.371386 37.977997 
L 86.651547 40.924286 
L 87.118482 49.504612 
L 88.612674 81.378586 
L 88.892835 83.469485 
L 89.079609 83.719813 
L 89.266383 83.038198 
L 89.546544 80.337886 
L 89.920092 74.025553 
L 90.667188 56.269626 
L 91.320897 42.418406 
L 91.694445 38.025925 
L 91.881219 37.134076 
L 91.974606 37.035739 
L 92.067993 37.171218 
L 92.254767 38.135867 
L 92.534928 41.227842 
L 93.001863 49.985231 
L 94.402668 80.528651 
L 94.682829 83.126071 
L 94.869603 83.734115 
L 94.96299 83.688508 
L 95.149764 82.900316 
L 95.429925 80.05174 
L 95.803473 73.583545 
L 96.643956 53.475342 
L 97.297665 40.721389 
L 97.671213 37.368208 
L 97.857987 37.046278 
L 98.044761 37.656845 
L 98.324922 40.257802 
L 98.69847 46.464663 
L 99.445566 64.156599 
L 100.099275 78.130248 
L 100.472823 82.647994 
L 100.752984 83.744359 
L 100.846371 83.644749 
L 101.033145 82.7504 
L 101.313306 79.755084 
L 101.780242 71.114873 
L 103.274434 39.322631 
L 103.554595 37.28348 
L 103.741369 37.069295 
L 103.928143 37.786688 
L 104.208304 40.536877 
L 104.581852 46.901851 
L 105.422335 66.961014 
L 106.076044 79.862749 
L 106.449592 83.348661 
L 106.636366 83.742118 
L 106.729753 83.588558 
L 106.916527 82.588532 
L 107.196688 79.448075 
L 107.663623 70.632361 
L 109.064428 40.160263 
L 109.344589 37.613206 
L 109.531363 37.04106 
L 109.62475 37.104778 
L 109.811524 37.928614 
L 110.091685 40.826565 
L 110.465233 47.34625 
L 111.399103 69.665785 
L 111.959425 80.155651 
L 112.332973 83.441575 
L 112.519747 83.727395 
L 112.706521 83.080969 
L 112.986682 80.429816 
L 113.36023 74.169566 
L 113.453617 72.21617 
L 113.453617 72.21617 
" clip-path="url(#pd922df1775)" style="fill: none; stroke: #0000ff; stroke-width: 0.6; stroke-linecap: square"/>
   </g>
   <g id="line2d_10">
    <path d="M 20.16 37.035 
L 21.000483 18.727328 
L 21.374031 14.522988 
L 21.560805 13.73605 
L 21.654192 13.691081 
L 21.840966 14.300386 
L 22.121127 16.899575 
L 22.494675 23.10455 
L 23.241771 40.795313 
L 23.89548 54.771105 
L 24.269028 59.291065 
L 24.549189 60.38931 
L 24.642576 60.290337 
L 24.82935 59.397238 
L 25.109511 56.403643 
L 25.576446 47.76553 
L 27.070638 15.97038 
L 27.350799 13.929407 
L 27.537573 13.71395 
L 27.724347 14.430086 
L 28.004508 17.178524 
L 28.378056 23.541653 
L 29.218539 43.599903 
L 29.872248 56.504232 
L 30.245796 59.992492 
L 30.43257 60.387217 
L 30.525957 60.234293 
L 30.712731 59.23551 
L 30.992892 56.096756 
L 31.459827 47.283084 
L 32.860633 16.808446 
L 33.140794 14.259616 
L 33.327568 13.686206 
L 33.420955 13.749287 
L 33.607729 14.57187 
L 33.88789 17.468087 
L 34.261438 23.985968 
L 35.195308 46.30494 
L 35.75563 56.797258 
L 36.129178 60.085551 
L 36.315952 60.372641 
L 36.502726 59.727476 
L 36.782887 57.078086 
L 37.156435 50.819708 
L 37.903531 33.096105 
L 38.55724 19.181631 
L 38.930788 14.724719 
L 39.210949 13.68 
L 39.304336 13.79707 
L 39.49111 14.725661 
L 39.771271 17.76811 
L 40.238206 26.465607 
L 41.732398 58.177181 
L 42.012559 60.166288 
L 42.199333 60.34559 
L 42.386107 59.593717 
L 42.666268 56.795561 
L 43.039816 50.380161 
L 43.880299 30.296538 
L 44.534008 17.466349 
L 44.907556 14.044936 
L 45.09433 13.686279 
L 45.187717 13.857276 
L 45.374491 14.891378 
L 45.654652 18.078433 
L 46.121587 26.949919 
L 47.522392 57.351467 
L 47.802553 59.849787 
L 47.989327 60.387266 
L 48.082714 60.306077 
L 48.269488 59.447898 
L 48.549649 56.502473 
L 49.016584 47.923205 
L 50.510776 16.04781 
L 50.790937 13.956003 
L 50.977711 13.705039 
L 51.164485 14.386025 
L 51.444646 17.085458 
L 51.818194 23.396862 
L 52.56529 41.152239 
L 53.218999 55.00456 
L 53.592547 59.398157 
L 53.779321 60.290631 
L 53.872708 60.389286 
L 53.966095 60.254125 
L 54.152869 59.290099 
L 54.43303 56.198979 
L 54.899965 47.44262 
L 56.300771 16.897962 
L 56.580932 14.299658 
L 56.767706 13.690983 
L 56.861093 13.736271 
L 57.047867 14.523836 
L 57.328028 17.371542 
L 57.701576 23.838828 
L 58.542059 43.946616 
L 59.195768 56.701894 
L 59.569316 60.056255 
L 59.75609 60.378821 
L 59.942864 59.768884 
L 60.223025 57.168811 
L 60.596573 50.962894 
L 61.343669 33.271544 
L 61.997378 19.296823 
L 62.370926 14.77797 
L 62.651087 13.680665 
L 62.744474 13.779957 
L 62.931248 14.67368 
L 63.211409 17.668137 
L 63.678344 26.307298 
L 65.172536 58.100995 
L 65.452697 60.141057 
L 65.639471 60.355878 
L 65.826245 59.639113 
L 66.106406 56.889799 
L 66.479954 50.525748 
L 67.320437 30.467042 
L 67.974146 17.564009 
L 68.347694 14.076924 
L 68.534468 13.682832 
L 68.627855 13.836074 
L 68.814629 14.835479 
L 69.09479 17.975084 
L 69.561725 26.789778 
L 70.96253 57.263146 
L 71.242691 59.811089 
L 71.429465 60.383868 
L 71.522852 60.320468 
L 71.709626 59.497259 
L 71.989787 56.600174 
L 72.363335 50.081391 
L 73.297205 27.762137 
L 73.857527 17.271045 
L 74.231075 13.983937 
L 74.417849 13.697482 
L 74.604623 14.343277 
L 74.884784 16.993549 
L 75.258332 23.252863 
L 76.005428 40.977033 
L 76.659137 54.890422 
L 77.032685 59.346223 
L 77.312846 60.39 
L 77.406233 60.272611 
L 77.593007 59.343397 
L 77.873168 56.30009 
L 78.340104 47.601553 
L 79.834296 15.891466 
L 80.114457 13.903273 
L 80.301231 13.724607 
L 80.488005 14.477108 
L 80.768166 17.276136 
L 81.141714 23.692453 
L 81.982197 43.776511 
L 82.635906 56.605389 
L 83.009454 60.025625 
L 83.196228 60.383647 
L 83.383002 59.808974 
L 83.663163 57.258369 
L 84.036711 51.105271 
L 84.783807 33.447201 
L 85.437516 19.413045 
L 85.811064 14.832513 
L 86.091225 13.682685 
L 86.184612 13.764192 
L 86.371386 14.622997 
L 86.651547 17.569286 
L 87.118482 26.149612 
L 88.612674 58.023586 
L 88.892835 60.114485 
L 89.079609 60.364813 
L 89.266383 59.683198 
L 89.546544 56.982886 
L 89.920092 50.670553 
L 90.667188 32.914626 
L 91.320897 19.063406 
L 91.694445 14.670925 
L 91.881219 13.779076 
L 91.974606 13.680739 
L 92.067993 13.816218 
L 92.254767 14.780867 
L 92.534928 17.872842 
L 93.001863 26.630231 
L 94.402668 57.173651 
L 94.682829 59.771071 
L 94.869603 60.379115 
L 94.96299 60.333508 
L 95.149764 59.545316 
L 95.429925 56.69674 
L 95.803473 50.228545 
L 96.643956 30.120342 
L 97.297665 17.366389 
L 97.671213 14.013208 
L 97.857987 13.691278 
L 98.044761 14.301845 
L 98.324922 16.902802 
L 98.69847 23.109663 
L 99.445566 40.801599 
L 100.099275 54.775248 
L 100.472823 59.292994 
L 100.752984 60.389359 
L 100.846371 60.289749 
L 101.033145 59.3954 
L 101.313306 56.400084 
L 101.780242 47.759873 
L 103.274434 15.967631 
L 103.554595 13.92848 
L 103.741369 13.714295 
L 103.928143 14.431688 
L 104.208304 17.181877 
L 104.581852 23.546851 
L 105.422335 43.606014 
L 106.076044 56.507749 
L 106.449592 59.993661 
L 106.636366 60.387118 
L 106.729753 60.233558 
L 106.916527 59.233532 
L 107.196688 56.093075 
L 107.663623 47.277361 
L 109.064428 16.805263 
L 109.344589 14.258206 
L 109.531363 13.68606 
L 109.62475 13.749778 
L 109.811524 14.573614 
L 110.091685 17.471565 
L 110.465233 23.99125 
L 111.399103 46.310785 
L 111.959425 56.800651 
L 112.332973 60.086575 
L 112.519747 60.372395 
L 112.706521 59.725969 
L 112.986682 57.074816 
L 113.36023 50.814566 
L 113.453617 48.86117 
L 113.453617 48.86117 
" clip-path="url(#pd922df1775)" style="fill: none; stroke: #ff0000; stroke-width: 0.6; stroke-linecap: square"/>
   </g>
   <g id="patch_3">
    <path d="M 20.16 107.1 
L 20.16 13.68 
" style="fill: none; stroke: #000000; stroke-width: 0.8; stroke-linejoin: miter; stroke-linecap: square"/>
   </g>
   <g id="patch_4">
    <path d="M 113.453617 107.1 
L 113.453617 13.68 
" style="fill: none; stroke: #000000; stroke-width: 0.8; stroke-linejoin: miter; stroke-linecap: square"/>
   </g>
   <g id="patch_5">
    <path d="M 20.16 107.1 
L 113.453617 107.1 
" style="fill: none; stroke: #000000; stroke-width: 0.8; stroke-linejoin: miter; stroke-linecap: square"/>
   </g>
   <g id="patch_6">
    <path d="M 20.16 13.68 
L 113.453617 13.68 
" style="fill: none; stroke: #000000; stroke-width: 0.8; stroke-linejoin: miter; stroke-linecap: square"/>
   </g>
   <g id="legend_1">
    <g id="line2d_11">
     <path d="M 59.67018 98.305313 
L 63.27018 98.305313 
L 66.87018 98.305313 
" style="fill: none; stroke: #0000ff; stroke-width: 0.6; stroke-linecap: square"/>
    </g>
    <g id="text_11">
     <!-- y -->
     <g transform="translate(71.67018 100.405313) scale(0.06 -0.06)">
      <use xlink:href="#TimesNewRomanPSMT-79"/>
     </g>
    </g>
    <g id="line2d_12">
     <path d="M 86.67018 98.305313 
L 90.27018 98.305313 
L 93.87018 98.305313 
" style="fill: none; stroke: #ff0000; stroke-width: 0.6; stroke-linecap: square"/>
    </g>
    <g id="text_12">
     <!-- y+1 -->
     <g transform="translate(98.67018 100.405313) scale(0.06 -0.06)">
      <defs>
       <path id="TimesNewRomanPSMT-2b" d="M 1672 441 
L 1672 2000 
L 116 2000 
L 116 2256 
L 1672 2256 
L 1672 3809 
L 1922 3809 
L 1922 2256 
L 3484 2256 
L 3484 2000 
L 1922 2000 
L 1922 441 
L 1672 441 
z
" transform="scale(0.015625)"/>
      </defs>
      <use xlink:href="#TimesNewRomanPSMT-79"/>
      <use xlink:href="#TimesNewRomanPSMT-2b" x="50"/>
      <use xlink:href="#TimesNewRomanPSMT-31" x="106.396484"/>
     </g>
    </g>
   </g>
  </g>
  <g id="axes_2">
   <g id="patch_7">
    <path d="M 146.106383 107.1 
L 239.4 107.1 
L 239.4 13.68 
L 146.106383 13.68 
z
" style="fill: #ffffff"/>
   </g>
   <g id="matplotlib.axis_3">
    <g id="xtick_4">
     <g id="line2d_13">
      <g>
       <use xlink:href="#ma48bab7325" x="146.106383" y="107.1" style="stroke: #000000; stroke-width: 0.8"/>
      </g>
     </g>
     <g id="text_13">
      <!-- 0 -->
      <g transform="translate(144.106383 114.665) scale(0.08 -0.08)">
       <use xlink:href="#TimesNewRomanPSMT-30"/>
      </g>
     </g>
    </g>
    <g id="xtick_5">
     <g id="line2d_14">
      <g>
       <use xlink:href="#ma48bab7325" x="192.753191" y="107.1" style="stroke: #000000; stroke-width: 0.8"/>
      </g>
     </g>
     <g id="text_14">
      <!-- 50 -->
      <g transform="translate(188.753191 114.665) scale(0.08 -0.08)">
       <use xlink:href="#TimesNewRomanPSMT-35"/>
       <use xlink:href="#TimesNewRomanPSMT-30" x="50"/>
      </g>
     </g>
    </g>
    <g id="xtick_6">
     <g id="line2d_15">
      <g>
       <use xlink:href="#ma48bab7325" x="239.4" y="107.1" style="stroke: #000000; stroke-width: 0.8"/>
      </g>
     </g>
     <g id="text_15">
      <!-- 100 -->
      <g transform="translate(233.4 114.665) scale(0.08 -0.08)">
       <use xlink:href="#TimesNewRomanPSMT-31"/>
       <use xlink:href="#TimesNewRomanPSMT-30" x="50"/>
       <use xlink:href="#TimesNewRomanPSMT-30" x="100"/>
      </g>
     </g>
    </g>
    <g id="text_16">
     <!-- x -->
     <g transform="translate(190.753191 121.94125) scale(0.08 -0.08)">
      <use xlink:href="#TimesNewRomanPSMT-78"/>
     </g>
    </g>
   </g>
   <g id="matplotlib.axis_4">
    <g id="ytick_6">
     <g id="line2d_16">
      <g>
       <use xlink:href="#md448a89559" x="146.106383" y="107.1" style="stroke: #000000; stroke-width: 0.8"/>
      </g>
     </g>
     <g id="text_17">
      <!-- −2 -->
      <g transform="translate(135.585133 109.8775) scale(0.08 -0.08)">
       <use xlink:href="#TimesNewRomanPSMT-2212"/>
       <use xlink:href="#TimesNewRomanPSMT-32" x="56.396484"/>
      </g>
     </g>
    </g>
    <g id="ytick_7">
     <g id="line2d_17">
      <g>
       <use xlink:href="#md448a89559" x="146.106383" y="83.745" style="stroke: #000000; stroke-width: 0.8"/>
      </g>
     </g>
     <g id="text_18">
      <!-- −1 -->
      <g transform="translate(135.585133 86.5225) scale(0.08 -0.08)">
       <use xlink:href="#TimesNewRomanPSMT-2212"/>
       <use xlink:href="#TimesNewRomanPSMT-31" x="56.396484"/>
      </g>
     </g>
    </g>
    <g id="ytick_8">
     <g id="line2d_18">
      <g>
       <use xlink:href="#md448a89559" x="146.106383" y="60.39" style="stroke: #000000; stroke-width: 0.8"/>
      </g>
     </g>
     <g id="text_19">
      <!-- 0 -->
      <g transform="translate(140.096383 63.1675) scale(0.08 -0.08)">
       <use xlink:href="#TimesNewRomanPSMT-30"/>
      </g>
     </g>
    </g>
    <g id="ytick_9">
     <g id="line2d_19">
      <g>
       <use xlink:href="#md448a89559" x="146.106383" y="37.035" style="stroke: #000000; stroke-width: 0.8"/>
      </g>
     </g>
     <g id="text_20">
      <!-- 1 -->
      <g transform="translate(140.096383 39.8125) scale(0.08 -0.08)">
       <use xlink:href="#TimesNewRomanPSMT-31"/>
      </g>
     </g>
    </g>
    <g id="ytick_10">
     <g id="line2d_20">
      <g>
       <use xlink:href="#md448a89559" x="146.106383" y="13.68" style="stroke: #000000; stroke-width: 0.8"/>
      </g>
     </g>
     <g id="text_21">
      <!-- 2 -->
      <g transform="translate(140.096383 16.4575) scale(0.08 -0.08)">
       <use xlink:href="#TimesNewRomanPSMT-32"/>
      </g>
     </g>
    </g>
    <g id="text_22">
     <!-- y -->
     <g transform="translate(133.848883 62.39) rotate(-90) scale(0.08 -0.08)">
      <use xlink:href="#TimesNewRomanPSMT-79"/>
     </g>
    </g>
   </g>
   <g id="line2d_21">
    <path d="M 146.106383 60.39 
L 146.946866 42.082328 
L 147.320414 37.877988 
L 147.507188 37.09105 
L 147.600575 37.046081 
L 147.787349 37.655386 
L 148.06751 40.254575 
L 148.441058 46.45955 
L 149.188154 64.150313 
L 149.841863 78.126105 
L 150.215411 82.646065 
L 150.495572 83.74431 
L 150.588959 83.645337 
L 150.775733 82.752238 
L 151.055894 79.758643 
L 151.522829 71.12053 
L 153.017021 39.32538 
L 153.297182 37.284407 
L 153.483956 37.06895 
L 153.67073 37.785086 
L 153.950891 40.533524 
L 154.324439 46.896653 
L 155.164922 66.954903 
L 155.818631 79.859232 
L 156.192179 83.347492 
L 156.378953 83.742217 
L 156.47234 83.589293 
L 156.659114 82.59051 
L 156.939275 79.451756 
L 157.40621 70.638084 
L 158.807016 40.163446 
L 159.087177 37.614616 
L 159.273951 37.041206 
L 159.367338 37.104287 
L 159.554112 37.92687 
L 159.834273 40.823087 
L 160.207821 47.340968 
L 161.141691 69.65994 
L 161.702013 80.152258 
L 162.075561 83.440551 
L 162.262335 83.727641 
L 162.449109 83.082476 
L 162.72927 80.433086 
L 163.102818 74.174708 
L 163.849914 56.451105 
L 164.503623 42.536631 
L 164.877171 38.079719 
L 165.157332 37.035 
L 165.250719 37.15207 
L 165.437493 38.080661 
L 165.717654 41.12311 
L 166.184589 49.820607 
L 167.678781 81.532181 
L 167.958942 83.521288 
L 168.145716 83.70059 
L 168.33249 82.948717 
L 168.612651 80.150561 
L 168.986199 73.735161 
L 169.826682 53.651538 
L 170.480391 40.821349 
L 170.853939 37.399936 
L 171.040713 37.041279 
L 171.1341 37.212276 
L 171.320874 38.246378 
L 171.601035 41.433433 
L 172.06797 50.304919 
L 173.468775 80.706467 
L 173.748936 83.204787 
L 173.93571 83.742266 
L 174.029097 83.661077 
L 174.215871 82.802898 
L 174.496032 79.857473 
L 174.962967 71.278205 
L 176.457159 39.40281 
L 176.73732 37.311003 
L 176.924094 37.060039 
L 177.110868 37.741025 
L 177.391029 40.440458 
L 177.764577 46.751862 
L 178.511673 64.507239 
L 179.165382 78.35956 
L 179.53893 82.753157 
L 179.725704 83.645631 
L 179.819091 83.744286 
L 179.912478 83.609125 
L 180.099252 82.645099 
L 180.379413 79.553979 
L 180.846348 70.79762 
L 182.247154 40.252962 
L 182.527315 37.654658 
L 182.714089 37.045983 
L 182.807476 37.091271 
L 182.99425 37.878836 
L 183.274411 40.726542 
L 183.647959 47.193828 
L 184.488442 67.301616 
L 185.142151 80.056894 
L 185.515699 83.411255 
L 185.702473 83.733821 
L 185.889247 83.123884 
L 186.169408 80.523811 
L 186.542956 74.317894 
L 187.290052 56.626544 
L 187.943761 42.651823 
L 188.317309 38.13297 
L 188.59747 37.035665 
L 188.690857 37.134957 
L 188.877631 38.02868 
L 189.157792 41.023137 
L 189.624727 49.662298 
L 191.118919 81.455995 
L 191.39908 83.496057 
L 191.585854 83.710878 
L 191.772628 82.994113 
L 192.052789 80.244799 
L 192.426337 73.880748 
L 193.26682 53.822042 
L 193.920529 40.919009 
L 194.294077 37.431924 
L 194.480851 37.037832 
L 194.574238 37.191074 
L 194.761012 38.190479 
L 195.041173 41.330084 
L 195.508108 50.144778 
L 196.908913 80.618146 
L 197.189074 83.166089 
L 197.375848 83.738868 
L 197.469235 83.675468 
L 197.656009 82.852259 
L 197.93617 79.955174 
L 198.309718 73.436391 
L 199.243588 51.117137 
L 199.80391 40.626045 
L 200.177458 37.338937 
L 200.364232 37.052482 
L 200.551006 37.698277 
L 200.831167 40.348549 
L 201.204715 46.607863 
L 201.951811 64.332033 
L 202.60552 78.245422 
L 202.979068 82.701223 
L 203.259229 83.745 
L 203.352616 83.627611 
L 203.53939 82.698397 
L 203.819551 79.65509 
L 204.286486 70.956553 
L 205.780679 39.246466 
L 206.06084 37.258273 
L 206.247614 37.079607 
L 206.434388 37.832108 
L 206.714549 40.631136 
L 207.088097 47.047453 
L 207.92858 67.131511 
L 208.582289 79.960389 
L 208.955837 83.380625 
L 209.142611 83.738647 
L 209.329385 83.163974 
L 209.609546 80.613369 
L 209.983094 74.460271 
L 210.73019 56.802201 
L 211.383899 42.768045 
L 211.757447 38.187513 
L 212.037608 37.037685 
L 212.130995 37.119192 
L 212.317769 37.977997 
L 212.59793 40.924286 
L 213.064865 49.504612 
L 214.559057 81.378586 
L 214.839218 83.469485 
L 215.025992 83.719813 
L 215.212766 83.038198 
L 215.492927 80.337886 
L 215.866475 74.025553 
L 216.613571 56.269626 
L 217.26728 42.418406 
L 217.640828 38.025925 
L 217.827602 37.134076 
L 217.920989 37.035739 
L 218.014376 37.171218 
L 218.20115 38.135867 
L 218.481311 41.227842 
L 218.948246 49.985231 
L 220.349051 80.528651 
L 220.629212 83.126071 
L 220.815986 83.734115 
L 220.909373 83.688508 
L 221.096147 82.900316 
L 221.376308 80.05174 
L 221.749856 73.583545 
L 222.590339 53.475342 
L 223.244048 40.721389 
L 223.617596 37.368208 
L 223.80437 37.046278 
L 223.991144 37.656845 
L 224.271305 40.257802 
L 224.644853 46.464663 
L 225.391949 64.156599 
L 226.045658 78.130248 
L 226.419206 82.647994 
L 226.699367 83.744359 
L 226.792754 83.644749 
L 226.979528 82.7504 
L 227.259689 79.755084 
L 227.726624 71.114873 
L 229.220817 39.322631 
L 229.500978 37.28348 
L 229.687752 37.069295 
L 229.874526 37.786688 
L 230.154687 40.536877 
L 230.528235 46.901851 
L 231.368718 66.961014 
L 232.022427 79.862749 
L 232.395975 83.348661 
L 232.582749 83.742118 
L 232.676136 83.588558 
L 232.86291 82.588532 
L 233.143071 79.448075 
L 233.610006 70.632361 
L 235.010811 40.160263 
L 235.290972 37.613206 
L 235.477746 37.04106 
L 235.571133 37.104778 
L 235.757907 37.928614 
L 236.038068 40.826565 
L 236.411616 47.34625 
L 237.345486 69.665785 
L 237.905808 80.155651 
L 238.279356 83.441575 
L 238.46613 83.727395 
L 238.652904 83.080969 
L 238.933065 80.429816 
L 239.306613 74.169566 
L 239.4 72.21617 
L 239.4 72.21617 
" clip-path="url(#p9906382702)" style="fill: none; stroke: #0000ff; stroke-width: 0.6; stroke-linecap: square"/>
   </g>
   <g id="line2d_22">
    <path d="M 146.106383 37.035 
L 146.946866 18.727328 
L 147.320414 14.522988 
L 147.507188 13.73605 
L 147.600575 13.691081 
L 147.787349 14.300386 
L 148.06751 16.899575 
L 148.441058 23.10455 
L 149.188154 40.795313 
L 149.841863 54.771105 
L 150.215411 59.291065 
L 150.495572 60.38931 
L 150.588959 60.290337 
L 150.775733 59.397238 
L 151.055894 56.403643 
L 151.522829 47.76553 
L 153.017021 15.97038 
L 153.297182 13.929407 
L 153.483956 13.71395 
L 153.67073 14.430086 
L 153.950891 17.178524 
L 154.324439 23.541653 
L 155.164922 43.599903 
L 155.818631 56.504232 
L 156.192179 59.992492 
L 156.378953 60.387217 
L 156.47234 60.234293 
L 156.659114 59.23551 
L 156.939275 56.096756 
L 157.40621 47.283084 
L 158.807016 16.808446 
L 159.087177 14.259616 
L 159.273951 13.686206 
L 159.367338 13.749287 
L 159.554112 14.57187 
L 159.834273 17.468087 
L 160.207821 23.985968 
L 161.141691 46.30494 
L 161.702013 56.797258 
L 162.075561 60.085551 
L 162.262335 60.372641 
L 162.449109 59.727476 
L 162.72927 57.078086 
L 163.102818 50.819708 
L 163.849914 33.096105 
L 164.503623 19.181631 
L 164.877171 14.724719 
L 165.157332 13.68 
L 165.250719 13.79707 
L 165.437493 14.725661 
L 165.717654 17.76811 
L 166.184589 26.465607 
L 167.678781 58.177181 
L 167.958942 60.166288 
L 168.145716 60.34559 
L 168.33249 59.593717 
L 168.612651 56.795561 
L 168.986199 50.380161 
L 169.826682 30.296538 
L 170.480391 17.466349 
L 170.853939 14.044936 
L 171.040713 13.686279 
L 171.1341 13.857276 
L 171.320874 14.891378 
L 171.601035 18.078433 
L 172.06797 26.949919 
L 173.468775 57.351467 
L 173.748936 59.849787 
L 173.93571 60.387266 
L 174.029097 60.306077 
L 174.215871 59.447898 
L 174.496032 56.502473 
L 174.962967 47.923205 
L 176.457159 16.04781 
L 176.73732 13.956003 
L 176.924094 13.705039 
L 177.110868 14.386025 
L 177.391029 17.085458 
L 177.764577 23.396862 
L 178.511673 41.152239 
L 179.165382 55.00456 
L 179.53893 59.398157 
L 179.725704 60.290631 
L 179.819091 60.389286 
L 179.912478 60.254125 
L 180.099252 59.290099 
L 180.379413 56.198979 
L 180.846348 47.44262 
L 182.247154 16.897962 
L 182.527315 14.299658 
L 182.714089 13.690983 
L 182.807476 13.736271 
L 182.99425 14.523836 
L 183.274411 17.371542 
L 183.647959 23.838828 
L 184.488442 43.946616 
L 185.142151 56.701894 
L 185.515699 60.056255 
L 185.702473 60.378821 
L 185.889247 59.768884 
L 186.169408 57.168811 
L 186.542956 50.962894 
L 187.290052 33.271544 
L 187.943761 19.296823 
L 188.317309 14.77797 
L 188.59747 13.680665 
L 188.690857 13.779957 
L 188.877631 14.67368 
L 189.157792 17.668137 
L 189.624727 26.307298 
L 191.118919 58.100995 
L 191.39908 60.141057 
L 191.585854 60.355878 
L 191.772628 59.639113 
L 192.052789 56.889799 
L 192.426337 50.525748 
L 193.26682 30.467042 
L 193.920529 17.564009 
L 194.294077 14.076924 
L 194.480851 13.682832 
L 194.574238 13.836074 
L 194.761012 14.835479 
L 195.041173 17.975084 
L 195.508108 26.789778 
L 196.908913 57.263146 
L 197.189074 59.811089 
L 197.375848 60.383868 
L 197.469235 60.320468 
L 197.656009 59.497259 
L 197.93617 56.600174 
L 198.309718 50.081391 
L 199.243588 27.762137 
L 199.80391 17.271045 
L 200.177458 13.983937 
L 200.364232 13.697482 
L 200.551006 14.343277 
L 200.831167 16.993549 
L 201.204715 23.252863 
L 201.951811 40.977033 
L 202.60552 54.890422 
L 202.979068 59.346223 
L 203.259229 60.39 
L 203.352616 60.272611 
L 203.53939 59.343397 
L 203.819551 56.30009 
L 204.286486 47.601553 
L 205.780679 15.891466 
L 206.06084 13.903273 
L 206.247614 13.724607 
L 206.434388 14.477108 
L 206.714549 17.276136 
L 207.088097 23.692453 
L 207.92858 43.776511 
L 208.582289 56.605389 
L 208.955837 60.025625 
L 209.142611 60.383647 
L 209.329385 59.808974 
L 209.609546 57.258369 
L 209.983094 51.105271 
L 210.73019 33.447201 
L 211.383899 19.413045 
L 211.757447 14.832513 
L 212.037608 13.682685 
L 212.130995 13.764192 
L 212.317769 14.622997 
L 212.59793 17.569286 
L 213.064865 26.149612 
L 214.559057 58.023586 
L 214.839218 60.114485 
L 215.025992 60.364813 
L 215.212766 59.683198 
L 215.492927 56.982886 
L 215.866475 50.670553 
L 216.613571 32.914626 
L 217.26728 19.063406 
L 217.640828 14.670925 
L 217.827602 13.779076 
L 217.920989 13.680739 
L 218.014376 13.816218 
L 218.20115 14.780867 
L 218.481311 17.872842 
L 218.948246 26.630231 
L 220.349051 57.173651 
L 220.629212 59.771071 
L 220.815986 60.379115 
L 220.909373 60.333508 
L 221.096147 59.545316 
L 221.376308 56.69674 
L 221.749856 50.228545 
L 222.590339 30.120342 
L 223.244048 17.366389 
L 223.617596 14.013208 
L 223.80437 13.691278 
L 223.991144 14.301845 
L 224.271305 16.902802 
L 224.644853 23.109663 
L 225.391949 40.801599 
L 226.045658 54.775248 
L 226.419206 59.292994 
L 226.699367 60.389359 
L 226.792754 60.289749 
L 226.979528 59.3954 
L 227.259689 56.400084 
L 227.726624 47.759873 
L 229.220817 15.967631 
L 229.500978 13.92848 
L 229.687752 13.714295 
L 229.874526 14.431688 
L 230.154687 17.181877 
L 230.528235 23.546851 
L 231.368718 43.606014 
L 232.022427 56.507749 
L 232.395975 59.993661 
L 232.582749 60.387118 
L 232.676136 60.233558 
L 232.86291 59.233532 
L 233.143071 56.093075 
L 233.610006 47.277361 
L 235.010811 16.805263 
L 235.290972 14.258206 
L 235.477746 13.68606 
L 235.571133 13.749778 
L 235.757907 14.573614 
L 236.038068 17.471565 
L 236.411616 23.99125 
L 237.345486 46.310785 
L 237.905808 56.800651 
L 238.279356 60.086575 
L 238.46613 60.372395 
L 238.652904 59.725969 
L 238.933065 57.074816 
L 239.306613 50.814566 
L 239.4 48.86117 
L 239.4 48.86117 
" clip-path="url(#p9906382702)" style="fill: none; stroke: #ff0000; stroke-width: 0.6; stroke-linecap: square"/>
   </g>
   <g id="patch_8">
    <path d="M 146.106383 107.1 
L 146.106383 13.68 
" style="fill: none; stroke: #000000; stroke-width: 0.8; stroke-linejoin: miter; stroke-linecap: square"/>
   </g>
   <g id="patch_9">
    <path d="M 239.4 107.1 
L 239.4 13.68 
" style="fill: none; stroke: #000000; stroke-width: 0.8; stroke-linejoin: miter; stroke-linecap: square"/>
   </g>
   <g id="patch_10">
    <path d="M 146.106383 107.1 
L 239.4 107.1 
" style="fill: none; stroke: #000000; stroke-width: 0.8; stroke-linejoin: miter; stroke-linecap: square"/>
   </g>
   <g id="patch_11">
    <path d="M 146.106383 13.68 
L 239.4 13.68 
" style="fill: none; stroke: #000000; stroke-width: 0.8; stroke-linejoin: miter; stroke-linecap: square"/>
   </g>
   <g id="legend_2">
    <g id="line2d_23">
     <path d="M 185.616562 98.305313 
L 189.216562 98.305313 
L 192.816562 98.305313 
" style="fill: none; stroke: #0000ff; stroke-width: 0.6; stroke-linecap: square"/>
    </g>
    <g id="text_23">
     <!-- y -->
     <g transform="translate(197.616562 100.405313) scale(0.06 -0.06)">
      <use xlink:href="#TimesNewRomanPSMT-79"/>
     </g>
    </g>
    <g id="line2d_24">
     <path d="M 212.616562 98.305313 
L 216.216562 98.305313 
L 219.816562 98.305313 
" style="fill: none; stroke: #ff0000; stroke-width: 0.6; stroke-linecap: square"/>
    </g>
    <g id="text_24">
     <!-- y+1 -->
     <g transform="translate(224.616562 100.405313) scale(0.06 -0.06)">
      <use xlink:href="#TimesNewRomanPSMT-79"/>
      <use xlink:href="#TimesNewRomanPSMT-2b" x="50"/>
      <use xlink:href="#TimesNewRomanPSMT-31" x="106.396484"/>
     </g>
    </g>
   </g>
  </g>
 </g>
 <defs>
  <clipPath id="pd922df1775">
   <rect x="20.16" y="13.68" width="93.293617" height="93.42"/>
  </clipPath>
  <clipPath id="p9906382702">
   <rect x="146.106383" y="13.68" width="93.293617" height="93.42"/>
  </clipPath>
 </defs>
</svg>
