<?xml version="1.0" encoding="utf-8" standalone="no"?>
<!DOCTYPE svg PUBLIC "-//W3C//DTD SVG 1.1//EN"
  "http://www.w3.org/Graphics/SVG/1.1/DTD/svg11.dtd">
<svg xmlns:xlink="http://www.w3.org/1999/xlink" width="252pt" height="193.846154pt" viewBox="0 0 252 193.846154" xmlns="http://www.w3.org/2000/svg" version="1.1">
 <metadata>
  <rdf:RDF xmlns:dc="http://purl.org/dc/elements/1.1/" xmlns:cc="http://creativecommons.org/ns#" xmlns:rdf="http://www.w3.org/1999/02/22-rdf-syntax-ns#">
   <cc:Work>
    <dc:type rdf:resource="http://purl.org/dc/dcmitype/StillImage"/>
    <dc:date>2023-12-04T12:29:51.954347</dc:date>
    <dc:format>image/svg+xml</dc:format>
    <dc:creator>
     <cc:Agent>
      <dc:title>Matplotlib v3.7.2, https://matplotlib.org/</dc:title>
     </cc:Agent>
    </dc:creator>
   </cc:Work>
  </rdf:RDF>
 </metadata>
 <defs>
  <style type="text/css">*{stroke-linejoin: round; stroke-linecap: butt}</style>
 </defs>
 <g id="figure_1">
  <g id="patch_1">
   <path d="M 0 193.846154 
L 252 193.846154 
L 252 0 
L 0 0 
z
" style="fill: #ffffff"/>
  </g>
  <g id="axes_1">
   <g id="patch_2">
    <path d="M 31.5 172.523077 
L 226.8 172.523077 
L 226.8 23.261538 
L 31.5 23.261538 
z
" style="fill: #ffffff"/>
   </g>
   <g id="patch_3">
    <path d="M 129.15 165.738462 
L 182.413636 165.738462 
L 182.413636 30.046154 
L 129.15 30.046154 
L 129.15 165.738462 
z
" clip-path="url(#p89b6836a12)" style="fill: none; stroke: #000000; stroke-linejoin: miter"/>
   </g>
   <g id="matplotlib.axis_1">
    <g id="xtick_1">
     <g id="line2d_1">
      <defs>
       <path id="m0750a936b9" d="M 0 0 
L 0 3.5 
" style="stroke: #000000; stroke-width: 0.8"/>
      </defs>
      <g>
       <use xlink:href="#m0750a936b9" x="40.377273" y="172.523077" style="stroke: #000000; stroke-width: 0.8"/>
      </g>
     </g>
     <g id="text_1">
      <!-- 0 -->
      <g transform="translate(38.377273 181.678077) scale(0.08 -0.08)">
       <defs>
        <path id="TimesNewRomanPSMT-30" d="M 231 2094 
Q 231 2819 450 3342 
Q 669 3866 1031 4122 
Q 1313 4325 1613 4325 
Q 2100 4325 2488 3828 
Q 2972 3213 2972 2159 
Q 2972 1422 2759 906 
Q 2547 391 2217 158 
Q 1888 -75 1581 -75 
Q 975 -75 572 641 
Q 231 1244 231 2094 
z
M 844 2016 
Q 844 1141 1059 588 
Q 1238 122 1591 122 
Q 1759 122 1940 273 
Q 2122 425 2216 781 
Q 2359 1319 2359 2297 
Q 2359 3022 2209 3506 
Q 2097 3866 1919 4016 
Q 1791 4119 1609 4119 
Q 1397 4119 1231 3928 
Q 1006 3669 925 3112 
Q 844 2556 844 2016 
z
" transform="scale(0.015625)"/>
       </defs>
       <use xlink:href="#TimesNewRomanPSMT-30"/>
      </g>
     </g>
    </g>
    <g id="xtick_2">
     <g id="line2d_2">
      <g>
       <use xlink:href="#m0750a936b9" x="75.886364" y="172.523077" style="stroke: #000000; stroke-width: 0.8"/>
      </g>
     </g>
     <g id="text_2">
      <!-- 20 -->
      <g transform="translate(71.886364 181.678077) scale(0.08 -0.08)">
       <defs>
        <path id="TimesNewRomanPSMT-32" d="M 2934 816 
L 2638 0 
L 138 0 
L 138 116 
Q 1241 1122 1691 1759 
Q 2141 2397 2141 2925 
Q 2141 3328 1894 3587 
Q 1647 3847 1303 3847 
Q 991 3847 742 3664 
Q 494 3481 375 3128 
L 259 3128 
Q 338 3706 661 4015 
Q 984 4325 1469 4325 
Q 1984 4325 2329 3994 
Q 2675 3663 2675 3213 
Q 2675 2891 2525 2569 
Q 2294 2063 1775 1497 
Q 997 647 803 472 
L 1909 472 
Q 2247 472 2383 497 
Q 2519 522 2628 598 
Q 2738 675 2819 816 
L 2934 816 
z
" transform="scale(0.015625)"/>
       </defs>
       <use xlink:href="#TimesNewRomanPSMT-32"/>
       <use xlink:href="#TimesNewRomanPSMT-30" x="50"/>
      </g>
     </g>
    </g>
    <g id="xtick_3">
     <g id="line2d_3">
      <g>
       <use xlink:href="#m0750a936b9" x="111.395455" y="172.523077" style="stroke: #000000; stroke-width: 0.8"/>
      </g>
     </g>
     <g id="text_3">
      <!-- 40 -->
      <g transform="translate(107.395455 181.678077) scale(0.08 -0.08)">
       <defs>
        <path id="TimesNewRomanPSMT-34" d="M 2978 1563 
L 2978 1119 
L 2409 1119 
L 2409 0 
L 1894 0 
L 1894 1119 
L 100 1119 
L 100 1519 
L 2066 4325 
L 2409 4325 
L 2409 1563 
L 2978 1563 
z
M 1894 1563 
L 1894 3666 
L 406 1563 
L 1894 1563 
z
" transform="scale(0.015625)"/>
       </defs>
       <use xlink:href="#TimesNewRomanPSMT-34"/>
       <use xlink:href="#TimesNewRomanPSMT-30" x="50"/>
      </g>
     </g>
    </g>
    <g id="xtick_4">
     <g id="line2d_4">
      <g>
       <use xlink:href="#m0750a936b9" x="146.904545" y="172.523077" style="stroke: #000000; stroke-width: 0.8"/>
      </g>
     </g>
     <g id="text_4">
      <!-- 60 -->
      <g transform="translate(142.904545 181.678077) scale(0.08 -0.08)">
       <defs>
        <path id="TimesNewRomanPSMT-36" d="M 2869 4325 
L 2869 4209 
Q 2456 4169 2195 4045 
Q 1934 3922 1679 3669 
Q 1425 3416 1258 3105 
Q 1091 2794 978 2366 
Q 1428 2675 1881 2675 
Q 2316 2675 2634 2325 
Q 2953 1975 2953 1425 
Q 2953 894 2631 456 
Q 2244 -75 1606 -75 
Q 1172 -75 869 213 
Q 275 772 275 1663 
Q 275 2231 503 2743 
Q 731 3256 1154 3653 
Q 1578 4050 1965 4187 
Q 2353 4325 2688 4325 
L 2869 4325 
z
M 925 2138 
Q 869 1716 869 1456 
Q 869 1156 980 804 
Q 1091 453 1309 247 
Q 1469 100 1697 100 
Q 1969 100 2183 356 
Q 2397 613 2397 1088 
Q 2397 1622 2184 2012 
Q 1972 2403 1581 2403 
Q 1463 2403 1327 2353 
Q 1191 2303 925 2138 
z
" transform="scale(0.015625)"/>
       </defs>
       <use xlink:href="#TimesNewRomanPSMT-36"/>
       <use xlink:href="#TimesNewRomanPSMT-30" x="50"/>
      </g>
     </g>
    </g>
    <g id="xtick_5">
     <g id="line2d_5">
      <g>
       <use xlink:href="#m0750a936b9" x="182.413636" y="172.523077" style="stroke: #000000; stroke-width: 0.8"/>
      </g>
     </g>
     <g id="text_5">
      <!-- 80 -->
      <g transform="translate(178.413636 181.678077) scale(0.08 -0.08)">
       <defs>
        <path id="TimesNewRomanPSMT-38" d="M 1228 2134 
Q 725 2547 579 2797 
Q 434 3047 434 3316 
Q 434 3728 753 4026 
Q 1072 4325 1600 4325 
Q 2113 4325 2425 4047 
Q 2738 3769 2738 3413 
Q 2738 3175 2569 2928 
Q 2400 2681 1866 2347 
Q 2416 1922 2594 1678 
Q 2831 1359 2831 1006 
Q 2831 559 2490 242 
Q 2150 -75 1597 -75 
Q 994 -75 656 303 
Q 388 606 388 966 
Q 388 1247 577 1523 
Q 766 1800 1228 2134 
z
M 1719 2469 
Q 2094 2806 2194 3001 
Q 2294 3197 2294 3444 
Q 2294 3772 2109 3958 
Q 1925 4144 1606 4144 
Q 1288 4144 1088 3959 
Q 888 3775 888 3528 
Q 888 3366 970 3203 
Q 1053 3041 1206 2894 
L 1719 2469 
z
M 1375 2016 
Q 1116 1797 991 1539 
Q 866 1281 866 981 
Q 866 578 1086 336 
Q 1306 94 1647 94 
Q 1984 94 2187 284 
Q 2391 475 2391 747 
Q 2391 972 2272 1150 
Q 2050 1481 1375 2016 
z
" transform="scale(0.015625)"/>
       </defs>
       <use xlink:href="#TimesNewRomanPSMT-38"/>
       <use xlink:href="#TimesNewRomanPSMT-30" x="50"/>
      </g>
     </g>
    </g>
    <g id="xtick_6">
     <g id="line2d_6">
      <g>
       <use xlink:href="#m0750a936b9" x="217.922727" y="172.523077" style="stroke: #000000; stroke-width: 0.8"/>
      </g>
     </g>
     <g id="text_6">
      <!-- 100 -->
      <g transform="translate(211.922727 181.678077) scale(0.08 -0.08)">
       <defs>
        <path id="TimesNewRomanPSMT-31" d="M 750 3822 
L 1781 4325 
L 1884 4325 
L 1884 747 
Q 1884 391 1914 303 
Q 1944 216 2037 169 
Q 2131 122 2419 116 
L 2419 0 
L 825 0 
L 825 116 
Q 1125 122 1212 167 
Q 1300 213 1334 289 
Q 1369 366 1369 747 
L 1369 3034 
Q 1369 3497 1338 3628 
Q 1316 3728 1258 3775 
Q 1200 3822 1119 3822 
Q 1003 3822 797 3725 
L 750 3822 
z
" transform="scale(0.015625)"/>
       </defs>
       <use xlink:href="#TimesNewRomanPSMT-31"/>
       <use xlink:href="#TimesNewRomanPSMT-30" x="50"/>
       <use xlink:href="#TimesNewRomanPSMT-30" x="100"/>
      </g>
     </g>
    </g>
   </g>
   <g id="matplotlib.axis_2">
    <g id="ytick_1">
     <g id="line2d_7">
      <defs>
       <path id="m7c5434b4f7" d="M 0 0 
L -3.5 0 
" style="stroke: #000000; stroke-width: 0.8"/>
      </defs>
      <g>
       <use xlink:href="#m7c5434b4f7" x="31.5" y="165.738462" style="stroke: #000000; stroke-width: 0.8"/>
      </g>
     </g>
     <g id="text_7">
      <!-- −10.0 -->
      <g transform="translate(9.38875 168.515962) scale(0.08 -0.08)">
       <defs>
        <path id="TimesNewRomanPSMT-2212" d="M 3484 2000 
L 116 2000 
L 116 2256 
L 3484 2256 
L 3484 2000 
z
" transform="scale(0.015625)"/>
        <path id="TimesNewRomanPSMT-2e" d="M 800 606 
Q 947 606 1047 504 
Q 1147 403 1147 259 
Q 1147 116 1045 14 
Q 944 -88 800 -88 
Q 656 -88 554 14 
Q 453 116 453 259 
Q 453 406 554 506 
Q 656 606 800 606 
z
" transform="scale(0.015625)"/>
       </defs>
       <use xlink:href="#TimesNewRomanPSMT-2212"/>
       <use xlink:href="#TimesNewRomanPSMT-31" x="56.396484"/>
       <use xlink:href="#TimesNewRomanPSMT-30" x="106.396484"/>
       <use xlink:href="#TimesNewRomanPSMT-2e" x="156.396484"/>
       <use xlink:href="#TimesNewRomanPSMT-30" x="181.396484"/>
      </g>
     </g>
    </g>
    <g id="ytick_2">
     <g id="line2d_8">
      <g>
       <use xlink:href="#m7c5434b4f7" x="31.5" y="148.776923" style="stroke: #000000; stroke-width: 0.8"/>
      </g>
     </g>
     <g id="text_8">
      <!-- −7.5 -->
      <g transform="translate(13.38875 151.554423) scale(0.08 -0.08)">
       <defs>
        <path id="TimesNewRomanPSMT-37" d="M 644 4238 
L 2916 4238 
L 2916 4119 
L 1503 -88 
L 1153 -88 
L 2419 3728 
L 1253 3728 
Q 900 3728 750 3644 
Q 488 3500 328 3200 
L 238 3234 
L 644 4238 
z
" transform="scale(0.015625)"/>
        <path id="TimesNewRomanPSMT-35" d="M 2778 4238 
L 2534 3706 
L 1259 3706 
L 981 3138 
Q 1809 3016 2294 2522 
Q 2709 2097 2709 1522 
Q 2709 1188 2573 903 
Q 2438 619 2231 419 
Q 2025 219 1772 97 
Q 1413 -75 1034 -75 
Q 653 -75 479 54 
Q 306 184 306 341 
Q 306 428 378 495 
Q 450 563 559 563 
Q 641 563 702 538 
Q 763 513 909 409 
Q 1144 247 1384 247 
Q 1750 247 2026 523 
Q 2303 800 2303 1197 
Q 2303 1581 2056 1914 
Q 1809 2247 1375 2428 
Q 1034 2569 447 2591 
L 1259 4238 
L 2778 4238 
z
" transform="scale(0.015625)"/>
       </defs>
       <use xlink:href="#TimesNewRomanPSMT-2212"/>
       <use xlink:href="#TimesNewRomanPSMT-37" x="56.396484"/>
       <use xlink:href="#TimesNewRomanPSMT-2e" x="106.396484"/>
       <use xlink:href="#TimesNewRomanPSMT-35" x="131.396484"/>
      </g>
     </g>
    </g>
    <g id="ytick_3">
     <g id="line2d_9">
      <g>
       <use xlink:href="#m7c5434b4f7" x="31.5" y="131.815385" style="stroke: #000000; stroke-width: 0.8"/>
      </g>
     </g>
     <g id="text_9">
      <!-- −5.0 -->
      <g transform="translate(13.38875 134.592885) scale(0.08 -0.08)">
       <use xlink:href="#TimesNewRomanPSMT-2212"/>
       <use xlink:href="#TimesNewRomanPSMT-35" x="56.396484"/>
       <use xlink:href="#TimesNewRomanPSMT-2e" x="106.396484"/>
       <use xlink:href="#TimesNewRomanPSMT-30" x="131.396484"/>
      </g>
     </g>
    </g>
    <g id="ytick_4">
     <g id="line2d_10">
      <g>
       <use xlink:href="#m7c5434b4f7" x="31.5" y="114.853846" style="stroke: #000000; stroke-width: 0.8"/>
      </g>
     </g>
     <g id="text_10">
      <!-- −2.5 -->
      <g transform="translate(13.38875 117.631346) scale(0.08 -0.08)">
       <use xlink:href="#TimesNewRomanPSMT-2212"/>
       <use xlink:href="#TimesNewRomanPSMT-32" x="56.396484"/>
       <use xlink:href="#TimesNewRomanPSMT-2e" x="106.396484"/>
       <use xlink:href="#TimesNewRomanPSMT-35" x="131.396484"/>
      </g>
     </g>
    </g>
    <g id="ytick_5">
     <g id="line2d_11">
      <g>
       <use xlink:href="#m7c5434b4f7" x="31.5" y="97.892308" style="stroke: #000000; stroke-width: 0.8"/>
      </g>
     </g>
     <g id="text_11">
      <!-- 0.0 -->
      <g transform="translate(17.9 100.669808) scale(0.08 -0.08)">
       <use xlink:href="#TimesNewRomanPSMT-30"/>
       <use xlink:href="#TimesNewRomanPSMT-2e" x="50"/>
       <use xlink:href="#TimesNewRomanPSMT-30" x="75"/>
      </g>
     </g>
    </g>
    <g id="ytick_6">
     <g id="line2d_12">
      <g>
       <use xlink:href="#m7c5434b4f7" x="31.5" y="80.930769" style="stroke: #000000; stroke-width: 0.8"/>
      </g>
     </g>
     <g id="text_12">
      <!-- 2.5 -->
      <g transform="translate(17.9 83.708269) scale(0.08 -0.08)">
       <use xlink:href="#TimesNewRomanPSMT-32"/>
       <use xlink:href="#TimesNewRomanPSMT-2e" x="50"/>
       <use xlink:href="#TimesNewRomanPSMT-35" x="75"/>
      </g>
     </g>
    </g>
    <g id="ytick_7">
     <g id="line2d_13">
      <g>
       <use xlink:href="#m7c5434b4f7" x="31.5" y="63.969231" style="stroke: #000000; stroke-width: 0.8"/>
      </g>
     </g>
     <g id="text_13">
      <!-- 5.0 -->
      <g transform="translate(17.9 66.746731) scale(0.08 -0.08)">
       <use xlink:href="#TimesNewRomanPSMT-35"/>
       <use xlink:href="#TimesNewRomanPSMT-2e" x="50"/>
       <use xlink:href="#TimesNewRomanPSMT-30" x="75"/>
      </g>
     </g>
    </g>
    <g id="ytick_8">
     <g id="line2d_14">
      <g>
       <use xlink:href="#m7c5434b4f7" x="31.5" y="47.007692" style="stroke: #000000; stroke-width: 0.8"/>
      </g>
     </g>
     <g id="text_14">
      <!-- 7.5 -->
      <g transform="translate(17.9 49.785192) scale(0.08 -0.08)">
       <use xlink:href="#TimesNewRomanPSMT-37"/>
       <use xlink:href="#TimesNewRomanPSMT-2e" x="50"/>
       <use xlink:href="#TimesNewRomanPSMT-35" x="75"/>
      </g>
     </g>
    </g>
    <g id="ytick_9">
     <g id="line2d_15">
      <g>
       <use xlink:href="#m7c5434b4f7" x="31.5" y="30.046154" style="stroke: #000000; stroke-width: 0.8"/>
      </g>
     </g>
     <g id="text_15">
      <!-- 10.0 -->
      <g transform="translate(13.9 32.823654) scale(0.08 -0.08)">
       <use xlink:href="#TimesNewRomanPSMT-31"/>
       <use xlink:href="#TimesNewRomanPSMT-30" x="50"/>
       <use xlink:href="#TimesNewRomanPSMT-2e" x="100"/>
       <use xlink:href="#TimesNewRomanPSMT-30" x="125"/>
      </g>
     </g>
    </g>
   </g>
   <g id="line2d_16">
    <path d="M 40.377273 97.892308 
L 41.621335 93.517903 
L 42.332228 91.842424 
L 42.865397 91.204801 
L 43.220844 91.110911 
L 43.57629 91.287914 
L 43.931736 91.728739 
L 44.464906 92.843405 
L 45.175799 95.009288 
L 47.663923 103.459962 
L 48.197093 104.357683 
L 48.552539 104.637551 
L 48.907985 104.647971 
L 49.263432 104.388526 
L 49.618878 103.869581 
L 50.152048 102.652584 
L 50.86294 100.39171 
L 52.995618 92.91365 
L 53.528788 91.773047 
L 54.061957 91.180145 
L 54.417404 91.117555 
L 54.77285 91.325592 
L 55.128296 91.795946 
L 55.661466 92.949531 
L 56.372359 95.152046 
L 58.68276 103.14531 
L 59.21593 104.180371 
L 59.571376 104.561447 
L 59.926822 104.676115 
L 60.282269 104.519793 
L 60.637715 104.098728 
L 61.170885 103.010262 
L 61.881777 100.869371 
L 64.369902 92.384894 
L 64.903071 91.459303 
L 65.258518 91.159077 
L 65.613964 91.12782 
L 65.96941 91.36678 
L 66.324857 91.866411 
L 66.858026 93.0583 
L 67.568919 95.296268 
L 69.87932 103.243175 
L 70.41249 104.237593 
L 70.767936 104.588481 
L 71.123382 104.67188 
L 71.478829 104.48446 
L 71.834275 104.033707 
L 72.367445 102.905924 
L 73.078337 100.727629 
L 75.566462 92.294763 
L 76.099631 91.411183 
L 76.455078 91.141609 
L 76.810524 91.141701 
L 77.165971 91.411456 
L 77.521417 91.940098 
L 78.054586 93.169652 
L 78.765479 95.441879 
L 80.898157 102.906547 
L 81.431327 104.0341 
L 81.964496 104.611935 
L 82.319943 104.664022 
L 82.675389 104.445603 
L 83.030835 103.965404 
L 83.564005 102.798906 
L 84.274898 100.584371 
L 86.585299 92.606176 
L 87.118468 91.584682 
L 87.473915 91.213706 
L 87.829361 91.109516 
L 88.184808 91.276275 
L 88.540254 91.707321 
L 89.073423 92.809036 
L 89.784316 94.962597 
L 92.272441 103.430272 
L 92.80561 104.341832 
L 93.161057 104.631797 
L 93.516503 104.652544 
L 93.871949 104.403243 
L 94.227396 103.893854 
L 94.760565 102.689265 
L 95.471458 100.439675 
L 97.781859 92.509265 
L 98.315029 91.528594 
L 98.670475 91.187871 
L 99.025921 91.114966 
L 99.381368 91.312792 
L 99.736814 91.773446 
L 100.269984 92.914279 
L 100.980876 95.104855 
L 103.291278 103.112455 
L 103.824447 104.160785 
L 104.179894 104.551761 
L 104.53534 104.676716 
L 104.890786 104.530657 
L 105.246233 104.119421 
L 105.779402 103.044035 
L 106.490295 100.915716 
L 108.978419 92.415231 
L 109.511589 91.475908 
L 109.867035 91.16562 
L 110.222482 91.124039 
L 110.577928 91.352826 
L 110.933374 91.842842 
L 111.466544 93.022183 
L 112.177437 95.248604 
L 114.487838 103.211251 
L 115.021007 104.219117 
L 115.376454 104.57997 
L 115.7319 104.673676 
L 116.087346 104.496489 
L 116.442793 104.05549 
L 116.975962 102.940592 
L 117.686855 100.77449 
L 120.17498 92.324125 
L 120.708149 91.426652 
L 121.063595 91.146965 
L 121.419042 91.13673 
L 121.774488 91.396356 
L 122.129934 91.915472 
L 122.663104 93.13269 
L 123.373997 95.393766 
L 125.506675 102.871594 
L 126.039844 104.011968 
L 126.573014 104.604605 
L 126.92846 104.667011 
L 127.283907 104.458791 
L 127.639353 103.988263 
L 128.172523 102.83445 
L 128.883415 100.631723 
L 131.193817 92.63872 
L 131.726986 91.603897 
L 132.082432 91.222998 
L 132.437879 91.108515 
L 132.793325 91.26502 
L 133.148771 91.686261 
L 133.681941 92.77496 
L 134.392834 94.916076 
L 136.880958 103.400261 
L 137.414128 104.325606 
L 137.769574 104.625652 
L 138.12502 104.656724 
L 138.480467 104.417582 
L 138.835913 103.917779 
L 139.369083 102.725667 
L 140.079975 100.487492 
L 142.390377 92.540872 
L 142.923546 91.546695 
L 143.278993 91.195986 
L 143.634439 91.112771 
L 143.989885 91.300374 
L 144.345332 91.751301 
L 144.878501 92.879315 
L 145.589394 95.057827 
L 148.077518 103.490375 
L 148.610688 104.373706 
L 148.966134 104.643099 
L 149.321581 104.642822 
L 149.677027 104.372885 
L 150.032473 103.844073 
L 150.565643 102.6143 
L 151.276536 100.341874 
L 153.409214 92.877445 
L 153.942383 91.750122 
L 154.475553 91.172553 
L 154.830999 91.120651 
L 155.186446 91.339252 
L 155.541892 91.819624 
L 156.075061 92.986349 
L 156.785954 95.201093 
L 159.096355 103.179019 
L 159.629525 104.200274 
L 159.984971 104.571072 
L 160.340418 104.675077 
L 160.695864 104.508135 
L 161.05131 104.076914 
L 161.58448 102.974967 
L 162.295373 100.821184 
L 164.783497 92.353809 
L 165.316667 91.442497 
L 165.672113 91.152712 
L 166.027559 91.13215 
L 166.383006 91.381632 
L 166.738452 91.891193 
L 167.271622 93.096005 
L 167.982514 95.345798 
L 170.292916 103.275914 
L 170.826085 104.256342 
L 171.181532 104.596886 
L 171.536978 104.669606 
L 171.892424 104.471597 
L 172.247871 104.01077 
L 172.78104 102.869708 
L 173.491933 100.678917 
L 175.802334 92.671569 
L 176.335504 91.623477 
L 176.69095 91.232678 
L 177.046396 91.107907 
L 177.401843 91.254149 
L 177.757289 91.665562 
L 178.290459 92.741182 
L 179.001351 94.869728 
L 181.489476 103.369931 
L 182.022645 104.309008 
L 182.378092 104.619116 
L 182.733538 104.660512 
L 183.088984 104.431543 
L 183.444431 103.941354 
L 183.9776 102.761789 
L 184.688493 100.535159 
L 186.998894 92.57279 
L 187.532064 91.565164 
L 187.88751 91.204489 
L 188.242957 91.110968 
L 188.598403 91.288338 
L 188.953849 91.729513 
L 189.487019 92.844641 
L 190.197912 95.010963 
L 192.686036 103.461019 
L 193.219206 104.358243 
L 193.574652 104.63775 
L 193.930098 104.6478 
L 194.285545 104.387992 
L 194.640991 103.868705 
L 195.174161 102.651266 
L 195.885053 100.38999 
L 198.017731 92.912393 
L 198.550901 91.772248 
L 199.08407 91.179876 
L 199.439517 91.117655 
L 199.794963 91.326057 
L 200.15041 91.796758 
L 200.683579 92.950799 
L 201.394472 95.153738 
L 203.704873 103.14648 
L 204.238043 104.181066 
L 204.593489 104.561787 
L 204.948935 104.676086 
L 205.304382 104.519397 
L 205.659828 104.09798 
L 206.192998 103.009047 
L 206.90389 100.867708 
L 209.392015 92.383814 
L 209.925184 91.458715 
L 210.280631 91.15885 
L 210.636077 91.127963 
L 210.991523 91.367287 
L 211.34697 91.867262 
L 211.880139 93.059598 
L 212.591032 95.297978 
L 214.901433 103.244312 
L 215.434603 104.238248 
L 215.790049 104.588778 
L 216.145495 104.671809 
L 216.500942 104.484023 
L 216.856388 104.032921 
L 217.389558 102.904677 
L 217.922727 101.327804 
L 217.922727 101.327804 
" clip-path="url(#p89b6836a12)" style="fill: none; stroke: #1f77b4; stroke-width: 1.5; stroke-linecap: square"/>
   </g>
   <g id="line2d_17">
    <path d="M 40.377273 63.969231 
L 41.621335 59.594827 
L 42.332228 57.919347 
L 42.865397 57.281724 
L 43.220844 57.187834 
L 43.57629 57.364837 
L 43.931736 57.805662 
L 44.464906 58.920329 
L 45.175799 61.086211 
L 47.663923 69.536885 
L 48.197093 70.434606 
L 48.552539 70.714474 
L 48.907985 70.724894 
L 49.263432 70.465449 
L 49.618878 69.946504 
L 50.152048 68.729507 
L 50.86294 66.468633 
L 52.995618 58.990573 
L 53.528788 57.84997 
L 54.061957 57.257068 
L 54.417404 57.194478 
L 54.77285 57.402515 
L 55.128296 57.872869 
L 55.661466 59.026454 
L 56.372359 61.228969 
L 58.68276 69.222233 
L 59.21593 70.257294 
L 59.571376 70.63837 
L 59.926822 70.753038 
L 60.282269 70.596717 
L 60.637715 70.175651 
L 61.170885 69.087185 
L 61.881777 66.946294 
L 64.369902 58.461817 
L 64.903071 57.536226 
L 65.258518 57.236 
L 65.613964 57.204743 
L 65.96941 57.443703 
L 66.324857 57.943335 
L 66.858026 59.135223 
L 67.568919 61.373191 
L 69.87932 69.320098 
L 70.41249 70.314516 
L 70.767936 70.665404 
L 71.123382 70.748803 
L 71.478829 70.561383 
L 71.834275 70.11063 
L 72.367445 68.982847 
L 73.078337 66.804552 
L 75.566462 58.371687 
L 76.099631 57.488106 
L 76.455078 57.218532 
L 76.810524 57.218624 
L 77.165971 57.488379 
L 77.521417 58.017021 
L 78.054586 59.246575 
L 78.765479 61.518802 
L 80.898157 68.98347 
L 81.431327 70.111023 
L 81.964496 70.688858 
L 82.319943 70.740945 
L 82.675389 70.522526 
L 83.030835 70.042327 
L 83.564005 68.875829 
L 84.274898 66.661295 
L 86.585299 58.683099 
L 87.118468 57.661605 
L 87.473915 57.290629 
L 87.829361 57.186439 
L 88.184808 57.353198 
L 88.540254 57.784244 
L 89.073423 58.885959 
L 89.784316 61.03952 
L 92.272441 69.507195 
L 92.80561 70.418755 
L 93.161057 70.70872 
L 93.516503 70.729467 
L 93.871949 70.480166 
L 94.227396 69.970777 
L 94.760565 68.766188 
L 95.471458 66.516598 
L 97.781859 58.586188 
L 98.315029 57.605517 
L 98.670475 57.264794 
L 99.025921 57.191889 
L 99.381368 57.389715 
L 99.736814 57.850369 
L 100.269984 58.991202 
L 100.980876 61.181779 
L 103.291278 69.189379 
L 103.824447 70.237708 
L 104.179894 70.628684 
L 104.53534 70.753639 
L 104.890786 70.607581 
L 105.246233 70.196344 
L 105.779402 69.120958 
L 106.490295 66.992639 
L 108.978419 58.492154 
L 109.511589 57.552831 
L 109.867035 57.242543 
L 110.222482 57.200962 
L 110.577928 57.429749 
L 110.933374 57.919765 
L 111.466544 59.099106 
L 112.177437 61.325527 
L 114.487838 69.288174 
L 115.021007 70.29604 
L 115.376454 70.656894 
L 115.7319 70.750599 
L 116.087346 70.573412 
L 116.442793 70.132413 
L 116.975962 69.017515 
L 117.686855 66.851413 
L 120.17498 58.401048 
L 120.708149 57.503575 
L 121.063595 57.223888 
L 121.419042 57.213653 
L 121.774488 57.473279 
L 122.129934 57.992395 
L 122.663104 59.209613 
L 123.373997 61.470689 
L 125.506675 68.948517 
L 126.039844 70.088891 
L 126.573014 70.681528 
L 126.92846 70.743934 
L 127.283907 70.535714 
L 127.639353 70.065187 
L 128.172523 68.911373 
L 128.883415 66.708647 
L 131.193817 58.715643 
L 131.726986 57.68082 
L 132.082432 57.299921 
L 132.437879 57.185438 
L 132.793325 57.341943 
L 133.148771 57.763184 
L 133.681941 58.851884 
L 134.392834 60.992999 
L 136.880958 69.477184 
L 137.414128 70.402529 
L 137.769574 70.702575 
L 138.12502 70.733647 
L 138.480467 70.494505 
L 138.835913 69.994702 
L 139.369083 68.80259 
L 140.079975 66.564416 
L 142.390377 58.617795 
L 142.923546 57.623618 
L 143.278993 57.272909 
L 143.634439 57.189694 
L 143.989885 57.377297 
L 144.345332 57.828224 
L 144.878501 58.956238 
L 145.589394 61.13475 
L 148.077518 69.567298 
L 148.610688 70.450629 
L 148.966134 70.720022 
L 149.321581 70.719745 
L 149.677027 70.449808 
L 150.032473 69.920996 
L 150.565643 68.691223 
L 151.276536 66.418797 
L 153.409214 58.954368 
L 153.942383 57.827045 
L 154.475553 57.249476 
L 154.830999 57.197574 
L 155.186446 57.416175 
L 155.541892 57.896547 
L 156.075061 59.063272 
L 156.785954 61.278016 
L 159.096355 69.255942 
L 159.629525 70.277197 
L 159.984971 70.647995 
L 160.340418 70.752001 
L 160.695864 70.585058 
L 161.05131 70.153837 
L 161.58448 69.05189 
L 162.295373 66.898107 
L 164.783497 58.430732 
L 165.316667 57.51942 
L 165.672113 57.229635 
L 166.027559 57.209073 
L 166.383006 57.458556 
L 166.738452 57.968116 
L 167.271622 59.172928 
L 167.982514 61.422721 
L 170.292916 69.352837 
L 170.826085 70.333265 
L 171.181532 70.673809 
L 171.536978 70.746529 
L 171.892424 70.548521 
L 172.247871 70.087693 
L 172.78104 68.946631 
L 173.491933 66.75584 
L 175.802334 58.748492 
L 176.335504 57.7004 
L 176.69095 57.309601 
L 177.046396 57.18483 
L 177.401843 57.331072 
L 177.757289 57.742485 
L 178.290459 58.818105 
L 179.001351 60.946651 
L 181.489476 69.446854 
L 182.022645 70.385931 
L 182.378092 70.696039 
L 182.733538 70.737435 
L 183.088984 70.508466 
L 183.444431 70.018277 
L 183.9776 68.838712 
L 184.688493 66.612083 
L 186.998894 58.649713 
L 187.532064 57.642087 
L 187.88751 57.281412 
L 188.242957 57.187892 
L 188.598403 57.365261 
L 188.953849 57.806436 
L 189.487019 58.921565 
L 190.197912 61.087886 
L 192.686036 69.537942 
L 193.219206 70.435167 
L 193.574652 70.714673 
L 193.930098 70.724723 
L 194.285545 70.464915 
L 194.640991 69.945628 
L 195.174161 68.728189 
L 195.885053 66.466913 
L 198.017731 58.989317 
L 198.550901 57.849171 
L 199.08407 57.256799 
L 199.439517 57.194578 
L 199.794963 57.40298 
L 200.15041 57.873681 
L 200.683579 59.027722 
L 201.394472 61.230661 
L 203.704873 69.223404 
L 204.238043 70.257989 
L 204.593489 70.63871 
L 204.948935 70.753009 
L 205.304382 70.59632 
L 205.659828 70.174903 
L 206.192998 69.085971 
L 206.90389 66.944631 
L 209.392015 58.460737 
L 209.925184 57.535638 
L 210.280631 57.235773 
L 210.636077 57.204886 
L 210.991523 57.44421 
L 211.34697 57.944185 
L 211.880139 59.136521 
L 212.591032 61.374901 
L 214.901433 69.321235 
L 215.434603 70.315171 
L 215.790049 70.665701 
L 216.145495 70.748732 
L 216.500942 70.560946 
L 216.856388 70.109844 
L 217.389558 68.9816 
L 217.922727 67.404727 
L 217.922727 67.404727 
" clip-path="url(#p89b6836a12)" style="fill: none; stroke: #ff7f0e; stroke-width: 1.5; stroke-linecap: square"/>
   </g>
   <g id="line2d_18">
    <path d="M 40.377273 131.815385 
L 41.621335 127.44098 
L 42.332228 125.765501 
L 42.865397 125.127878 
L 43.220844 125.033988 
L 43.57629 125.210991 
L 43.931736 125.651816 
L 44.464906 126.766482 
L 45.175799 128.932365 
L 47.663923 137.383039 
L 48.197093 138.28076 
L 48.552539 138.560628 
L 48.907985 138.571048 
L 49.263432 138.311603 
L 49.618878 137.792658 
L 50.152048 136.575661 
L 50.86294 134.314787 
L 52.995618 126.836727 
L 53.528788 125.696124 
L 54.061957 125.103222 
L 54.417404 125.040632 
L 54.77285 125.248669 
L 55.128296 125.719023 
L 55.661466 126.872608 
L 56.372359 129.075123 
L 58.68276 137.068387 
L 59.21593 138.103448 
L 59.571376 138.484524 
L 59.926822 138.599192 
L 60.282269 138.44287 
L 60.637715 138.021805 
L 61.170885 136.933339 
L 61.881777 134.792448 
L 64.369902 126.307971 
L 64.903071 125.38238 
L 65.258518 125.082154 
L 65.613964 125.050897 
L 65.96941 125.289857 
L 66.324857 125.789488 
L 66.858026 126.981376 
L 67.568919 129.219345 
L 69.87932 137.166251 
L 70.41249 138.16067 
L 70.767936 138.511558 
L 71.123382 138.594957 
L 71.478829 138.407537 
L 71.834275 137.956784 
L 72.367445 136.829001 
L 73.078337 134.650706 
L 75.566462 126.21784 
L 76.099631 125.33426 
L 76.455078 125.064686 
L 76.810524 125.064778 
L 77.165971 125.334533 
L 77.521417 125.863175 
L 78.054586 127.092729 
L 78.765479 129.364956 
L 80.898157 136.829624 
L 81.431327 137.957177 
L 81.964496 138.535012 
L 82.319943 138.587099 
L 82.675389 138.36868 
L 83.030835 137.888481 
L 83.564005 136.721983 
L 84.274898 134.507448 
L 86.585299 126.529253 
L 87.118468 125.507759 
L 87.473915 125.136783 
L 87.829361 125.032593 
L 88.184808 125.199352 
L 88.540254 125.630398 
L 89.073423 126.732112 
L 89.784316 128.885674 
L 92.272441 137.353349 
L 92.80561 138.264909 
L 93.161057 138.554874 
L 93.516503 138.575621 
L 93.871949 138.32632 
L 94.227396 137.816931 
L 94.760565 136.612342 
L 95.471458 134.362752 
L 97.781859 126.432342 
L 98.315029 125.451671 
L 98.670475 125.110948 
L 99.025921 125.038043 
L 99.381368 125.235869 
L 99.736814 125.696523 
L 100.269984 126.837356 
L 100.980876 129.027932 
L 103.291278 137.035532 
L 103.824447 138.083862 
L 104.179894 138.474838 
L 104.53534 138.599793 
L 104.890786 138.453734 
L 105.246233 138.042498 
L 105.779402 136.967112 
L 106.490295 134.838793 
L 108.978419 126.338308 
L 109.511589 125.398985 
L 109.867035 125.088697 
L 110.222482 125.047116 
L 110.577928 125.275903 
L 110.933374 125.765919 
L 111.466544 126.94526 
L 112.177437 129.171681 
L 114.487838 137.134328 
L 115.021007 138.142194 
L 115.376454 138.503047 
L 115.7319 138.596753 
L 116.087346 138.419566 
L 116.442793 137.978566 
L 116.975962 136.863669 
L 117.686855 134.697567 
L 120.17498 126.247202 
L 120.708149 125.349729 
L 121.063595 125.070042 
L 121.419042 125.059807 
L 121.774488 125.319433 
L 122.129934 125.838549 
L 122.663104 127.055767 
L 123.373997 129.316843 
L 125.506675 136.794671 
L 126.039844 137.935045 
L 126.573014 138.527682 
L 126.92846 138.590087 
L 127.283907 138.381868 
L 127.639353 137.91134 
L 128.172523 136.757527 
L 128.883415 134.5548 
L 131.193817 126.561797 
L 131.726986 125.526974 
L 132.082432 125.146075 
L 132.437879 125.031592 
L 132.793325 125.188097 
L 133.148771 125.609338 
L 133.681941 126.698037 
L 134.392834 128.839153 
L 136.880958 137.323338 
L 137.414128 138.248683 
L 137.769574 138.548729 
L 138.12502 138.579801 
L 138.480467 138.340659 
L 138.835913 137.840856 
L 139.369083 136.648744 
L 140.079975 134.410569 
L 142.390377 126.463949 
L 142.923546 125.469772 
L 143.278993 125.119063 
L 143.634439 125.035848 
L 143.989885 125.223451 
L 144.345332 125.674378 
L 144.878501 126.802392 
L 145.589394 128.980904 
L 148.077518 137.413452 
L 148.610688 138.296783 
L 148.966134 138.566176 
L 149.321581 138.565899 
L 149.677027 138.295962 
L 150.032473 137.76715 
L 150.565643 136.537376 
L 151.276536 134.264951 
L 153.409214 126.800522 
L 153.942383 125.673199 
L 154.475553 125.09563 
L 154.830999 125.043727 
L 155.186446 125.262329 
L 155.541892 125.742701 
L 156.075061 126.909425 
L 156.785954 129.12417 
L 159.096355 137.102096 
L 159.629525 138.123351 
L 159.984971 138.494149 
L 160.340418 138.598154 
L 160.695864 138.431212 
L 161.05131 137.999991 
L 161.58448 136.898044 
L 162.295373 134.744261 
L 164.783497 126.276886 
L 165.316667 125.365574 
L 165.672113 125.075789 
L 166.027559 125.055227 
L 166.383006 125.304709 
L 166.738452 125.81427 
L 167.271622 127.019082 
L 167.982514 129.268875 
L 170.292916 137.198991 
L 170.826085 138.179419 
L 171.181532 138.519963 
L 171.536978 138.592683 
L 171.892424 138.394674 
L 172.247871 137.933846 
L 172.78104 136.792785 
L 173.491933 134.601993 
L 175.802334 126.594646 
L 176.335504 125.546554 
L 176.69095 125.155755 
L 177.046396 125.030984 
L 177.401843 125.177226 
L 177.757289 125.588639 
L 178.290459 126.664259 
L 179.001351 128.792804 
L 181.489476 137.293007 
L 182.022645 138.232085 
L 182.378092 138.542193 
L 182.733538 138.583589 
L 183.088984 138.35462 
L 183.444431 137.864431 
L 183.9776 136.684865 
L 184.688493 134.458236 
L 186.998894 126.495867 
L 187.532064 125.488241 
L 187.88751 125.127566 
L 188.242957 125.034045 
L 188.598403 125.211415 
L 188.953849 125.65259 
L 189.487019 126.767718 
L 190.197912 128.93404 
L 192.686036 137.384096 
L 193.219206 138.28132 
L 193.574652 138.560827 
L 193.930098 138.570877 
L 194.285545 138.311069 
L 194.640991 137.791782 
L 195.174161 136.574343 
L 195.885053 134.313066 
L 198.017731 126.83547 
L 198.550901 125.695325 
L 199.08407 125.102953 
L 199.439517 125.040732 
L 199.794963 125.249134 
L 200.15041 125.719835 
L 200.683579 126.873876 
L 201.394472 129.076815 
L 203.704873 137.069557 
L 204.238043 138.104143 
L 204.593489 138.484864 
L 204.948935 138.599163 
L 205.304382 138.442474 
L 205.659828 138.021057 
L 206.192998 136.932124 
L 206.90389 134.790785 
L 209.392015 126.306891 
L 209.925184 125.381792 
L 210.280631 125.081927 
L 210.636077 125.05104 
L 210.991523 125.290364 
L 211.34697 125.790339 
L 211.880139 126.982675 
L 212.591032 129.221055 
L 214.901433 137.167389 
L 215.434603 138.161324 
L 215.790049 138.511855 
L 216.145495 138.594886 
L 216.500942 138.407099 
L 216.856388 137.955998 
L 217.389558 136.827754 
L 217.922727 135.250881 
L 217.922727 135.250881 
" clip-path="url(#p89b6836a12)" style="fill: none; stroke: #2ca02c; stroke-width: 1.5; stroke-linecap: square"/>
   </g>
   <g id="patch_4">
    <path d="M 31.5 172.523077 
L 31.5 23.261538 
" style="fill: none; stroke: #000000; stroke-width: 0.8; stroke-linejoin: miter; stroke-linecap: square"/>
   </g>
   <g id="patch_5">
    <path d="M 226.8 172.523077 
L 226.8 23.261538 
" style="fill: none; stroke: #000000; stroke-width: 0.8; stroke-linejoin: miter; stroke-linecap: square"/>
   </g>
   <g id="patch_6">
    <path d="M 31.5 172.523077 
L 226.8 172.523077 
" style="fill: none; stroke: #000000; stroke-width: 0.8; stroke-linejoin: miter; stroke-linecap: square"/>
   </g>
   <g id="patch_7">
    <path d="M 31.5 23.261538 
L 226.8 23.261538 
" style="fill: none; stroke: #000000; stroke-width: 0.8; stroke-linejoin: miter; stroke-linecap: square"/>
   </g>
   <g id="legend_1">
    <g id="line2d_19">
     <path d="M 195.216563 30.761538 
L 201.216563 30.761538 
L 207.216563 30.761538 
" style="fill: none; stroke: #1f77b4; stroke-width: 1.5; stroke-linecap: square"/>
    </g>
    <g id="text_16">
     <!-- y -->
     <g transform="translate(212.016563 32.861538) scale(0.06 -0.06)">
      <defs>
       <path id="TimesNewRomanPSMT-79" d="M 38 2863 
L 1372 2863 
L 1372 2747 
L 1306 2747 
Q 1166 2747 1095 2686 
Q 1025 2625 1025 2534 
Q 1025 2413 1128 2197 
L 1825 753 
L 2466 2334 
Q 2519 2463 2519 2588 
Q 2519 2644 2497 2672 
Q 2472 2706 2419 2726 
Q 2366 2747 2231 2747 
L 2231 2863 
L 3163 2863 
L 3163 2747 
Q 3047 2734 2984 2696 
Q 2922 2659 2847 2556 
Q 2819 2513 2741 2316 
L 1575 -541 
Q 1406 -956 1132 -1168 
Q 859 -1381 606 -1381 
Q 422 -1381 303 -1275 
Q 184 -1169 184 -1031 
Q 184 -900 270 -820 
Q 356 -741 506 -741 
Q 609 -741 788 -809 
Q 913 -856 944 -856 
Q 1038 -856 1148 -759 
Q 1259 -663 1372 -384 
L 1575 113 
L 547 2272 
Q 500 2369 397 2513 
Q 319 2622 269 2659 
Q 197 2709 38 2747 
L 38 2863 
z
" transform="scale(0.015625)"/>
      </defs>
      <use xlink:href="#TimesNewRomanPSMT-79"/>
     </g>
    </g>
    <g id="line2d_20">
     <path d="M 195.216563 39.256226 
L 201.216563 39.256226 
L 207.216563 39.256226 
" style="fill: none; stroke: #ff7f0e; stroke-width: 1.5; stroke-linecap: square"/>
    </g>
    <g id="text_17">
     <!-- y+5 -->
     <g transform="translate(212.016563 41.356226) scale(0.06 -0.06)">
      <defs>
       <path id="TimesNewRomanPSMT-2b" d="M 1672 441 
L 1672 2000 
L 116 2000 
L 116 2256 
L 1672 2256 
L 1672 3809 
L 1922 3809 
L 1922 2256 
L 3484 2256 
L 3484 2000 
L 1922 2000 
L 1922 441 
L 1672 441 
z
" transform="scale(0.015625)"/>
      </defs>
      <use xlink:href="#TimesNewRomanPSMT-79"/>
      <use xlink:href="#TimesNewRomanPSMT-2b" x="50"/>
      <use xlink:href="#TimesNewRomanPSMT-35" x="106.396484"/>
     </g>
    </g>
    <g id="line2d_21">
     <path d="M 195.216563 47.750913 
L 201.216563 47.750913 
L 207.216563 47.750913 
" style="fill: none; stroke: #2ca02c; stroke-width: 1.5; stroke-linecap: square"/>
    </g>
    <g id="text_18">
     <!-- y-5 -->
     <g transform="translate(212.016563 49.850913) scale(0.06 -0.06)">
      <defs>
       <path id="TimesNewRomanPSMT-2d" d="M 259 1672 
L 1875 1672 
L 1875 1200 
L 259 1200 
L 259 1672 
z
" transform="scale(0.015625)"/>
      </defs>
      <use xlink:href="#TimesNewRomanPSMT-79"/>
      <use xlink:href="#TimesNewRomanPSMT-2d" x="50"/>
      <use xlink:href="#TimesNewRomanPSMT-35" x="83.300781"/>
     </g>
    </g>
   </g>
  </g>
 </g>
 <defs>
  <clipPath id="p89b6836a12">
   <rect x="31.5" y="23.261538" width="195.3" height="149.261538"/>
  </clipPath>
 </defs>
</svg>
